<svg width="120" height="28" viewBox="0 0 120 28" fill="none" xmlns="http://www.w3.org/2000/svg">
<g id="Group 2327">
<g id="Group 2326">
<circle id="Ellipse 3" cx="14.4676" cy="13.8186" r="13.8186" fill="white"/>
<g id="Group 2321">
<path id="facebook-f-brands (1)" d="M17.5062 14.9064L17.8664 12.5571H15.6134V11.0347C15.5978 10.8594 15.6218 10.6828 15.6837 10.5181C15.7455 10.3533 15.8435 10.2045 15.9706 10.0827C16.0976 9.96091 16.2504 9.86923 16.4177 9.81443C16.5849 9.75963 16.7624 9.74311 16.9369 9.76609H17.9612V7.76527C17.3597 7.66879 16.7519 7.61645 16.1428 7.60865C15.7237 7.57667 15.3027 7.63726 14.9096 7.78613C14.5165 7.935 14.161 8.16851 13.8682 8.4701C13.5754 8.7717 13.3526 9.13399 13.2154 9.53132C13.0783 9.92864 13.0302 10.3513 13.0746 10.7692V12.5586H11.0127V14.9079H13.0754V20.5838H15.6134V14.9064H17.5062Z" fill="black"/>
</g>
</g>
<g id="Group 2324">
<circle id="Ellipse 5" cx="105.533" cy="13.8186" r="13.8186" fill="white"/>
<g id="Group 2323">
<g id="instagram-line">
<path id="Path 701" d="M105.707 12.3947C105.391 12.3947 105.082 12.4884 104.819 12.664C104.556 12.8396 104.352 13.0892 104.231 13.3812C104.11 13.6733 104.078 13.9946 104.14 14.3046C104.201 14.6146 104.354 14.8993 104.577 15.1228C104.801 15.3463 105.085 15.4985 105.395 15.5602C105.705 15.6219 106.027 15.5902 106.319 15.4693C106.611 15.3483 106.86 15.1435 107.036 14.8807C107.211 14.6179 107.305 14.3089 107.305 13.9928C107.305 13.7829 107.264 13.5751 107.184 13.3812C107.103 13.1873 106.985 13.0112 106.837 12.8628C106.689 12.7144 106.513 12.5967 106.319 12.5163C106.125 12.436 105.917 12.3947 105.707 12.3947ZM105.707 11.3293C106.234 11.3293 106.749 11.4855 107.187 11.7782C107.625 12.0708 107.966 12.4868 108.168 12.9735C108.369 13.4602 108.422 13.9958 108.319 14.5124C108.217 15.0291 107.963 15.5037 107.59 15.8762C107.218 16.2487 106.743 16.5024 106.227 16.6051C105.71 16.7079 105.174 16.6552 104.688 16.4536C104.201 16.252 103.785 15.9106 103.492 15.4726C103.2 15.0346 103.044 14.5196 103.044 13.9928C103.044 13.643 103.112 13.2967 103.246 12.9735C103.38 12.6504 103.576 12.3567 103.824 12.1094C104.323 11.6099 105.001 11.3293 105.707 11.3293ZM109.17 11.1961C109.17 11.3278 109.131 11.4566 109.057 11.5661C108.984 11.6756 108.88 11.7609 108.759 11.8113C108.637 11.8617 108.503 11.8749 108.374 11.8492C108.245 11.8235 108.126 11.7601 108.033 11.667C107.94 11.5738 107.876 11.4552 107.851 11.326C107.825 11.1969 107.838 11.063 107.889 10.9413C107.939 10.8196 108.024 10.7156 108.134 10.6425C108.243 10.5693 108.372 10.5302 108.504 10.5302C108.591 10.5302 108.678 10.5475 108.759 10.5809C108.839 10.6144 108.913 10.6634 108.975 10.7253C109.036 10.7871 109.085 10.8605 109.119 10.9413C109.152 11.0221 109.17 11.1087 109.17 11.1961ZM105.707 9.73118C104.391 9.73118 104.174 9.73118 103.561 9.76215C103.234 9.76647 102.91 9.82616 102.603 9.93869C102.387 10.0222 102.191 10.1499 102.028 10.3135C101.864 10.477 101.736 10.673 101.653 10.8887C101.54 11.1957 101.481 11.5196 101.476 11.8465C101.449 12.435 101.445 12.6401 101.445 13.9928C101.445 15.3091 101.445 15.5259 101.476 16.1391C101.481 16.4658 101.541 16.7893 101.653 17.0961C101.736 17.312 101.863 17.508 102.027 17.6717C102.19 17.8353 102.386 17.9629 102.602 18.0462C102.909 18.1589 103.234 18.2189 103.561 18.2235C104.149 18.2513 104.354 18.2544 105.707 18.2544C107.023 18.2544 107.24 18.2544 107.853 18.2235C108.18 18.2187 108.504 18.1591 108.81 18.0469C109.028 17.9666 109.224 17.8389 109.386 17.673C109.552 17.5118 109.68 17.3152 109.76 17.0977C109.873 16.7903 109.932 16.4663 109.937 16.1391C109.965 15.5507 109.968 15.3455 109.968 13.9928C109.968 12.6765 109.968 12.4597 109.937 11.8465C109.932 11.5196 109.873 11.1957 109.76 10.8887C109.68 10.6713 109.552 10.4747 109.386 10.3134C109.225 10.1467 109.028 10.0186 108.81 9.93869C108.503 9.82613 108.18 9.76644 107.853 9.76215C107.265 9.73428 107.06 9.73118 105.707 9.73118ZM105.707 8.66577C107.154 8.66577 107.333 8.67119 107.903 8.69752C108.345 8.7067 108.782 8.79046 109.196 8.94529C109.552 9.07846 109.874 9.28806 110.14 9.55929C110.411 9.82565 110.621 10.148 110.755 10.5039C110.91 10.918 110.994 11.3551 111.003 11.797C111.028 12.3645 111.035 12.5457 111.035 13.9928C111.035 15.4399 111.029 15.6188 111.003 16.1887C110.994 16.6305 110.91 17.0676 110.755 17.4817C110.619 17.8361 110.409 18.158 110.141 18.4265C109.872 18.6951 109.55 18.9045 109.196 19.0411C108.782 19.1957 108.345 19.2795 107.903 19.2889C107.335 19.3137 107.154 19.3206 105.707 19.3206C104.26 19.3206 104.081 19.3152 103.511 19.2889C103.069 19.2794 102.632 19.1957 102.218 19.0411C101.864 18.9045 101.543 18.6953 101.274 18.427C101.006 18.1587 100.797 17.8372 100.66 17.4833C100.505 17.0693 100.422 16.6321 100.413 16.1902C100.387 15.6203 100.38 15.4399 100.38 13.9928C100.38 12.5457 100.385 12.3668 100.412 11.797C100.421 11.3551 100.505 10.9179 100.66 10.5039C100.796 10.1497 101.005 9.82808 101.274 9.55964C101.542 9.29121 101.864 9.08193 102.218 8.94529C102.632 8.79042 103.069 8.70665 103.511 8.69752C104.079 8.67274 104.26 8.66577 105.707 8.66577Z" fill="black"/>
</g>
</g>
</g>
<g id="Group 2325">
<circle id="Ellipse 4" cx="60" cy="13.8186" r="13.8186" fill="white"/>
<g id="twitter-fill">
<path id="Path 703" d="M65.5859 10.6128C65.1791 10.7928 64.7477 10.911 64.306 10.9635C64.7728 10.685 65.1221 10.246 65.2886 9.72857C64.8515 9.98872 64.373 10.172 63.874 10.2706C63.5385 9.91274 63.0943 9.67564 62.6103 9.59605C62.1264 9.51647 61.6296 9.59883 61.1973 9.83038C60.7649 10.0619 60.421 10.4297 60.219 10.8767C60.017 11.3236 59.9681 11.8247 60.08 12.3023C59.1942 12.2578 58.3277 12.0275 57.5367 11.6264C56.7457 11.2253 56.0478 10.6623 55.4885 9.97401C55.2036 10.4645 55.1163 11.0452 55.2443 11.5978C55.3723 12.1504 55.7061 12.6335 56.1776 12.9488C55.8247 12.9372 55.4797 12.8417 55.1711 12.67V12.6979C55.1706 13.2118 55.3477 13.71 55.6723 14.1083C55.997 14.5066 56.4493 14.7805 56.9527 14.8837C56.6244 14.9727 56.2803 14.9859 55.9461 14.9224C56.0881 15.3654 56.3651 15.7529 56.7383 16.0306C57.1115 16.3083 57.5623 16.4623 58.0274 16.471C57.5653 16.8339 57.0362 17.1023 56.4704 17.2606C55.9046 17.419 55.3131 17.4643 54.7297 17.3939C55.7481 18.0487 56.9336 18.3963 58.1443 18.3951C58.9788 18.4008 59.806 18.2407 60.578 17.9238C61.35 17.607 62.0513 17.1399 62.6412 16.5496C63.231 15.9594 63.6976 15.2577 64.0139 14.4855C64.3301 13.7132 64.4897 12.8859 64.4833 12.0514C64.4833 11.9554 64.4833 11.8586 64.4764 11.7634C64.9115 11.4489 65.2872 11.0596 65.5859 10.6136V10.6128Z" fill="black"/>
</g>
</g>
</g>
</svg>
