<svg width="177" height="289" viewBox="0 0 177 289" fill="none" xmlns="http://www.w3.org/2000/svg">
<path d="M155.233 177.241C130.768 169.241 104.66 167.651 79.4047 172.625L79.8256 171.086C79.9266 170.745 79.3945 170.552 79.2687 170.885L78.4386 172.813C32.8693 181.832 -8.78289 210.222 -37.8051 247.657C-24.5622 221.894 -9.70098 196.996 6.68923 173.111C6.75723 173.069 6.81597 173.013 6.86194 172.947C6.9079 172.882 6.94016 172.807 6.95676 172.729C16.1537 159.359 25.8267 146.334 35.9758 133.655C36.1124 133.848 36.3068 133.993 36.5309 134.068C36.755 134.144 36.9973 134.146 37.2229 134.075C102.65 117.178 156.084 65.7223 176.627 1.56222C176.67 1.36448 176.66 1.15887 176.599 0.966099C176.537 0.773319 176.426 0.600131 176.276 0.463916C176.127 0.327674 175.944 0.233213 175.746 0.189995C175.548 0.146762 175.343 0.156295 175.15 0.217648C156.175 5.47587 137.092 10.4758 118.124 15.8755C113.449 17.2141 108.849 18.8026 104.344 20.6342C104.263 20.0097 104.206 19.3937 104.067 18.6941C103.928 17.9946 103.261 18.2006 103.293 18.725L103.386 20.9224C92.4801 25.2119 82.5751 31.7024 74.2885 39.9891C74.176 38.7154 74.0885 37.4501 73.9511 36.168C73.8942 35.7184 73.22 35.7412 73.2352 36.1907C73.2884 37.8054 73.3166 39.4118 73.3366 41.0014C64.806 50.1136 57.7933 60.5359 52.5661 71.8708L52.4711 70.2975C52.4598 70.2254 52.4224 70.1601 52.366 70.1138C52.3097 70.0675 52.2383 70.0435 52.1654 70.0463C52.0925 70.0492 52.0232 70.0787 51.9706 70.1292C51.9181 70.1798 51.8859 70.2479 51.8802 70.3206L51.8286 73.483C43.4987 91.6581 38.5751 111.716 34.6774 131.037C24.93 143.019 15.6171 155.332 6.73871 167.976C6.76825 166.528 6.7395 165.088 6.67741 163.665C13.9541 141.842 14.4288 118.323 8.03864 96.2235C-0.812155 65.8184 -26.089 45.1404 -37.9747 16.4901L-38.0716 15.541C-38.0747 15.5062 -38.0886 15.4733 -38.1113 15.4467C-38.134 15.4202 -38.1645 15.4015 -38.1984 15.3931C-38.2323 15.3848 -38.2679 15.3872 -38.3004 15.4001C-38.3328 15.413 -38.3604 15.4357 -38.3793 15.4651L-39.1224 13.5902C-39.2049 13.3555 -39.3529 13.1493 -39.5488 12.9961C-39.7448 12.8428 -39.9805 12.7489 -40.2282 12.7253C-40.4758 12.7018 -40.725 12.7496 -40.9463 12.8632C-41.1676 12.9768 -41.3518 13.1514 -41.477 13.3664C-46.9417 24.9091 -49.9949 37.445 -50.4502 50.2078C-50.9054 62.9706 -48.7531 75.6922 -44.1247 87.5949C-38.9242 101.135 -31.2567 113.535 -23.697 125.843C-15.0194 139.902 -6.27488 153.887 2.66965 167.772C2.51028 168.163 2.38427 168.537 2.24158 168.919C1.70469 170.266 3.45727 171.37 4.25144 170.249L4.58224 170.916C-6.96084 187.541 -17.726 204.687 -27.7133 222.355C-22.0691 206.052 -20.548 188.18 -25.839 171.693C-30.1494 158.272 -38.6769 146.735 -46.5636 135.234L-53.738 124.791C-53.5851 124.633 -53.4684 124.443 -53.3959 124.235C-53.3234 124.026 -53.2969 123.805 -53.3181 123.586C-53.3719 122.179 -54.4861 121.859 -55.5854 122.072L-72.3862 97.5844L-72.4827 96.5105C-72.4942 96.4334 -72.5322 96.3628 -72.5901 96.3108C-72.6481 96.2587 -72.7224 96.2285 -72.8002 96.2253C-72.878 96.2221 -72.9545 96.2461 -73.0166 96.2932C-73.0786 96.3403 -73.1223 96.4076 -73.1401 96.4834L-73.9022 95.3658C-74.0356 95.1725 -74.2217 95.0215 -74.4383 94.9307C-74.655 94.84 -74.8931 94.8132 -75.1245 94.8536C-75.3559 94.8941 -75.5708 95 -75.7438 95.1589C-75.9168 95.3178 -76.0406 95.5229 -76.1006 95.75C-78.9415 104.596 -81.4331 113.532 -83.5755 122.558L-84.1479 121.949C-84.5709 121.515 -85.1473 122.195 -84.7659 122.629L-83.8288 123.681C-85.3394 130.309 -86.717 136.996 -87.8781 143.617C-90.177 157.409 -91.0245 170.148 -85.648 183.289C-85.1855 184.431 -84.6731 185.548 -84.144 186.698C-84.4441 186.847 -84.5041 187.396 -84.1217 187.539L-83.6979 187.723C-78.1142 198.937 -71.2853 209.486 -63.3403 219.172C-57.8525 226.047 -50.9854 233.65 -42.4645 236.715C-41.3131 238.057 -39.7457 238.976 -38.0118 239.325L-38.2964 239.841C-38.4338 240.048 -38.4857 240.301 -38.4416 240.546C-38.3974 240.791 -38.2604 241.01 -38.0592 241.156C-45.7735 255.868 -52.881 270.854 -59.3819 286.114C-60.1029 287.801 -57.5688 289.141 -56.8144 287.437C-52.2488 277.098 -47.4533 266.874 -42.4279 256.764L-41.1742 255.103C-41.0032 255.193 -40.8115 255.236 -40.6186 255.228C-40.4257 255.219 -40.2384 255.161 -40.0755 255.057C-39.5921 254.817 -39.1582 254.477 -38.6913 254.204C-18.2739 264.039 4.82078 261.515 25.528 253.341C25.6673 253.304 25.7976 253.239 25.9115 253.151C31.3813 251.005 36.7023 248.497 41.8395 245.644C60.1735 235.241 76.1799 221.359 93.2132 209.088C109.687 196.856 128.154 187.569 147.796 181.637C148.861 181.774 149.967 181.827 150.957 182.022C151.065 182.032 151.174 182.003 151.262 181.939C151.35 181.875 151.412 181.781 151.436 181.675C151.46 181.569 151.444 181.457 151.392 181.362C151.339 181.267 151.254 181.194 151.151 181.157C150.86 181.073 150.569 181.03 150.261 180.954C151.944 180.494 153.66 180.058 155.367 179.647C156.642 179.285 156.289 177.569 155.233 177.241ZM87.1916 110.222C81.7652 108.702 76.1332 108.047 70.5028 108.28C65.6247 108.623 59.5731 111.625 55.096 111.477L54.7882 111.443C61.6036 103.769 68.571 96.2757 75.6904 88.9632C88.2757 87.9314 100.945 88.85 113.25 91.6867C105.058 98.5325 96.3459 104.73 87.1916 110.222ZM170.191 12.9604C158.301 42.9446 139.209 69.5386 114.602 90.3926C114.551 90.2707 114.47 90.1634 114.367 90.0803C114.264 89.9972 114.143 89.9409 114.013 89.9164C102.858 87.0304 91.3189 85.9128 79.8175 86.6044C79.035 86.6601 78.294 86.7577 77.6279 86.8388C85.8099 78.6253 94.1551 70.5732 102.663 62.6826C114.368 61.6958 124.914 63.818 136.264 67.0164C137.046 67.2519 137.499 66.0299 136.76 65.6697C131.537 63.2933 125.982 61.7266 120.287 61.0237C117.251 60.598 108.909 61.4955 104.767 60.7667C114.304 52.0748 124.024 43.6109 133.926 35.3751C141.953 34.1582 150.104 33.9685 158.179 34.8108C159.311 34.9142 159.707 33.201 158.559 33.0642C151.177 32.2503 143.723 32.3414 136.362 33.3355C148.317 23.486 160.534 13.8732 173.014 4.49699C173.423 6.87021 171.122 10.6913 170.224 13.0271L170.191 12.9604ZM158.591 7.08142C160.166 6.65362 171.489 2.42821 172.41 3.28001L172.551 3.56342C157.885 13.0971 143.731 23.3979 130.15 34.4228L129.076 34.6441C131.826 28.004 133.541 20.981 134.16 13.8205C142.34 11.6048 150.495 9.38064 158.624 7.14811L158.591 7.08142ZM130.937 14.6925C131.736 14.462 132.544 14.2482 133.344 14.0177C132.368 21.3934 130.28 28.5786 127.151 35.3288C127.097 35.435 127.068 35.5527 127.067 35.6722C127.066 35.7917 127.093 35.9097 127.146 36.0168C127.199 36.1238 127.277 36.2169 127.373 36.2885C127.468 36.3601 127.579 36.4083 127.697 36.4291C118.964 43.5312 110.449 50.9335 102.152 58.6362C101.631 54.7396 104.575 44.9699 104.884 41.9498C105.422 35.6344 105.339 29.2813 104.636 22.982C113.253 19.7509 122.045 17.0056 130.97 14.7592L130.937 14.6925ZM79.2792 38.2405C86.3948 31.8704 94.5932 26.8256 103.487 23.3446C104.002 36.0252 102.715 48.7147 99.6641 61.0336C90.7494 69.3613 82.0725 77.9311 73.6334 86.743C73.2338 86.3896 72.9148 85.9544 72.6981 85.4669C72.4813 84.9795 72.372 84.4511 72.3773 83.9177C71.5735 77.5234 74.4298 69.0851 74.7837 62.4282C75.1151 55.9751 75.0632 49.5081 74.6284 43.0612C76.1398 41.4597 77.7177 39.9084 79.3537 38.3905L79.2792 38.2405ZM73.3598 44.189C73.5832 59.02 72.3321 73.8363 69.625 88.4198C69.5968 88.5565 69.5997 88.6978 69.6336 88.8332C69.6674 88.9686 69.7313 89.0947 69.8205 89.2021C69.9097 89.3095 70.0219 89.3954 70.1488 89.4536C70.2757 89.5117 70.414 89.5405 70.5536 89.5379L71.0114 89.4978C64.6375 96.1912 58.4407 102.991 52.4211 109.896C51.9597 108.421 52.6245 106.118 52.69 103.821C52.8337 100.468 52.9608 97.1225 53.0131 93.7521C53.0971 88.2262 53.048 82.6832 52.8655 77.2064C57.8464 65.1831 64.798 54.0749 73.4343 44.3391L73.3598 44.189ZM51.8006 79.7082C51.6253 90.452 51.3751 101.171 50.717 111.905C45.9948 117.377 41.3501 122.866 36.7831 128.373L36.5659 128.646C40.9536 112.24 45.2762 95.4088 51.8006 79.7082ZM38.7831 130.185C43.1527 124.839 47.6218 119.568 52.1572 114.431C62.5072 109.884 74.0579 108.836 85.0572 111.447C70.2316 120.084 54.3487 126.761 37.8058 131.314L38.7831 130.185ZM6.10692 157.197C5.08615 150.064 3.28002 143.067 0.721471 136.332C0.845766 136.379 0.979917 136.395 1.11179 136.377C1.24366 136.36 1.3691 136.31 1.47675 136.232C1.5844 136.153 1.67088 136.05 1.72834 135.93C1.78581 135.81 1.81246 135.677 1.80588 135.544C2.25009 121.364 3.62606 107.303 4.50293 93.158C11.3299 113.881 11.8879 136.158 6.10692 157.197ZM3.03455 89.0254L3.61201 90.6501C1.84742 103.047 0.779981 115.533 0.414697 128.05C0.281063 130.837 -0.0809671 132.159 -0.706593 132.615C-4.73616 122.524 -9.82361 112.729 -14.5287 103.077C-15.9346 100.243 -17.2072 97.3839 -18.4136 94.617C-16.0767 84.6291 -13.0499 74.9012 -9.84004 65.1657C-4.65239 72.6017 -0.332756 80.607 3.03455 89.0254ZM-10.5851 63.915C-12.1508 67.7661 -13.5835 71.6621 -14.8831 75.6029C-15.7232 78.097 -17.94 89.5834 -19.8182 91.3668C-24.3986 80.3469 -28.1164 68.988 -30.9381 57.3925C-28.7274 53.0967 -26.5666 48.7841 -24.3891 44.4633C-19.8488 50.9359 -15.0585 57.3261 -10.5851 63.915ZM-25.3504 43.1536L-29.6973 51.8952C-30.2753 53.0752 -30.7871 54.3885 -31.4482 55.5266C-33.8854 45.202 -35.7419 34.7489 -37.0087 24.2164C-33.5478 30.7809 -29.6531 37.1074 -25.3504 43.1536ZM-40.2494 17.3068C-39.6134 18.8402 -38.9107 20.3404 -38.1913 21.8324C-37.7662 33.9197 -36.0831 45.9299 -33.1694 57.6684C-33.7852 57.3357 -34.35 56.9163 -34.8466 56.4231C-39.3373 52.6887 -43.1003 47.7832 -47.1647 43.4843C-46.2101 34.4612 -43.91 25.6319 -40.3409 17.2899L-40.2494 17.3068ZM-47.2932 44.6491C-42.649 49.8237 -37.7627 54.816 -33.0851 59.974C-33.0211 60.0381 -32.9409 60.0837 -32.8531 60.106C-32.7652 60.1282 -32.673 60.1263 -32.5862 60.1004C-29.8814 70.5612 -26.403 80.8066 -22.1798 90.7518C-25.5022 88.6607 -31.2614 83.3744 -32.5649 82.3799C-36.667 79.4707 -40.9198 76.8024 -45.2729 74.3086C-47.5695 64.5946 -48.2826 54.5734 -47.3847 44.6321L-47.2932 44.6491ZM-23.7364 122.497C-29.456 112.987 -34.6133 103.15 -39.1816 93.0368C-41.4933 87.8326 -43.3611 82.4422 -44.7651 76.9234C-36.257 81.9811 -28.2176 87.7887 -20.7428 94.2768L-19.9985 95.7772C-14.5438 107.862 -8.2724 119.625 -3.40049 131.791C-4.55487 131.014 -5.97454 129.91 -7.72751 128.931C-12.5697 126.278 -17.62 124.025 -22.8283 122.192C-22.9072 122.149 -22.9942 122.122 -23.0839 122.114C-23.1735 122.106 -23.2639 122.117 -23.3492 122.146C-23.4345 122.174 -23.513 122.22 -23.5796 122.281C-23.6463 122.341 -23.6997 122.415 -23.7364 122.497ZM-22.7927 124.107C-15.6692 126.685 -8.86826 130.08 -2.52598 134.224C1.14463 143.342 3.48555 152.941 4.42497 162.726C4.04679 163.89 3.66033 165.037 3.24893 166.176C-5.17091 152.176 -14.3486 138.323 -22.7678 124.115L-22.7927 124.107ZM-53.5601 129.086C-45.7649 140.571 -37.0284 151.817 -31.1927 164.503C-29.2647 168.714 -27.778 173.115 -26.7566 177.633C-32.8407 180.377 -38.2994 184.336 -42.7975 189.267C-44.7339 191.436 -46.4737 193.773 -47.9962 196.25C-49.4099 198.551 -50.4165 203.683 -52.286 205.358C-52.5194 205.474 -52.6532 205.665 -52.8118 205.806C-53.2482 204.339 -53.5939 203.098 -53.8989 202.19C-57.1301 192.298 -59.9393 182.294 -62.3265 172.178C-62.2224 172.152 -62.1244 172.106 -62.0384 172.042C-61.9524 171.978 -61.8802 171.897 -61.826 171.805C-56.7525 162.266 -49.8094 156.329 -41.2921 150.006C-40.8587 149.791 -41.1639 148.925 -41.7139 149.156C-50.2149 152.957 -54.9553 159.775 -60.7029 166.657C-62.0646 168.308 -62.5162 168.989 -63.1236 168.938L-63.2642 168.654C-65.1109 160.451 -66.5746 152.223 -67.7638 144.005C-67.7638 144.005 -67.7638 144.005 -67.6805 143.964C-66.9022 142.602 -58.962 129.252 -56.4521 125.099L-53.5601 129.086ZM-57.5699 123.264C-59.6406 125.413 -61.2026 129.844 -62.5751 132.27C-63.3452 133.649 -66.0953 140.082 -68.0296 141.208C-69.7949 128.311 -70.9609 115.366 -71.9766 102.305L-57.5699 123.264ZM-74.4373 98.768L-73.1117 100.686C-73.1754 113.46 -72.3088 126.222 -70.519 138.87C-71.2477 137.694 -71.9347 136.519 -72.1005 136.31C-73.277 134.608 -74.4951 132.948 -75.78 131.321C-77.5621 129.027 -79.4613 126.916 -81.4601 124.729C-79.463 116.024 -77.136 107.384 -74.479 98.8095L-74.4373 98.768ZM-84.8164 178.224C-89.3667 164.361 -86.625 150.038 -83.9179 136.106C-83.2664 132.729 -82.5484 129.361 -81.7971 126.018C-77.5174 130.946 -73.6167 136.192 -70.1285 141.709C-68.8825 150.377 -67.2534 158.979 -65.3827 167.482L-65.773 167.198C-67.8821 165.668 -69.6564 163.557 -71.765 161.861C-75.8891 158.393 -80.2446 155.209 -84.8013 152.332C-85.2581 152.04 -85.7849 152.82 -85.3614 153.13C-78.1614 158.421 -71.2948 164.152 -64.8007 170.289C-64.0208 173.704 -63.2243 177.11 -62.361 180.483C-60.2491 189.012 -57.7455 197.409 -55.0003 205.707C-55.6135 204.857 -56.2693 204.038 -56.965 203.254C-59.7114 200.305 -62.7415 197.633 -66.0114 195.278C-70.6087 192.001 -75.6543 189.403 -80.9925 187.565C-82.4828 184.544 -83.7605 181.423 -84.8164 178.224ZM-64.7201 213.333C-70.4553 205.662 -75.623 197.581 -80.182 189.157C-69.6758 193.659 -60.5104 200.797 -53.5736 209.881C-52.1962 213.83 -50.7855 217.763 -49.2664 221.663C-48.0734 225.467 -46.6653 229.2 -45.0489 232.845C-52.7567 227.614 -59.4267 220.998 -64.7201 213.333ZM-51.8572 209.238C-50.013 202.718 -46.7918 196.669 -42.4109 191.5C-38.0301 186.331 -32.5915 182.162 -26.4622 179.273C-22.5212 198.985 -27.2888 219.693 -36.9239 237.415C-43.5527 236.071 -48.7777 219.759 -51.8158 209.321L-51.8572 209.238ZM110.682 172.232L103.692 179.75C92.4961 181.798 81.5244 184.924 70.9303 189.085C71.7704 186.591 74.8348 183.43 76.049 181.061C77.0465 179.113 77.8985 177.093 78.5981 175.019C89.1904 173.035 99.957 172.135 110.732 172.332L110.682 172.232ZM93.8742 205.353C93.8444 205.229 93.7883 205.112 93.7096 205.011C93.631 204.911 93.5316 204.828 93.4183 204.769L80.9401 197.705C78.4312 196.291 73.252 194.477 71.3957 191.949C81.3875 188.208 91.6784 185.32 102.158 183.316C106.876 185.669 111.384 188.423 115.631 191.548C115.727 191.621 115.837 191.673 115.955 191.699C111.737 193.916 107.602 196.3 103.565 198.884C100.288 200.987 97.1018 203.191 93.9238 205.453L93.8742 205.353ZM48.9682 183.506C58.1324 179.943 67.5933 177.197 77.2407 175.298C74.8632 180.718 71.7254 185.772 67.9221 190.307C64.3555 191.744 60.8303 193.264 57.3964 194.843C50.337 198.075 43.3849 201.607 36.4741 205.222C35.9305 203.414 37.2938 201.304 39.4269 197.857C42.2878 193.239 45.207 188.571 47.8932 183.935C48.3177 183.912 48.6511 183.746 49.0178 183.606L48.9682 183.506ZM46.2098 184.646C41.4765 191.855 37.1008 199.157 32.3428 206.274C32.2485 206.454 32.2215 206.662 32.2666 206.861C32.3118 207.059 32.4261 207.235 32.5891 207.357C19.9336 214.299 7.54248 221.859 -4.70764 229.577C-4.3968 226.016 1.43639 221.024 3.30054 218.416C6.68316 213.647 9.63733 208.587 12.1285 203.297C22.8031 195.901 34.2467 189.681 46.2594 184.746L46.2098 184.646ZM10.477 204.449C5.11415 213.607 -1.23688 222.149 -8.46219 229.923C-8.54951 230.02 -8.61334 230.136 -8.64877 230.262C-8.68421 230.388 -8.69031 230.521 -8.6666 230.649C-8.6429 230.778 -8.59002 230.899 -8.51204 231.004C-8.43405 231.109 -8.33302 231.195 -8.21672 231.255L-7.71816 231.506C-17.7669 237.883 -27.7577 244.335 -37.698 250.637C-23.8417 233.107 -7.61403 217.59 10.5184 204.532L10.477 204.449ZM-36.2809 252.572C-25.949 246.138 -15.5746 239.413 -5.08386 232.755C4.88402 237.911 14.251 244.153 22.8461 251.369C3.67217 258.907 -17.0418 261.288 -36.2815 252.739L-36.2809 252.572ZM54.6915 234.45C45.4058 240.888 35.4658 246.327 25.0371 250.677C21.1237 247.329 17.0449 244.181 12.8161 241.242C10.0839 239.377 7.28481 237.587 4.41882 235.914C3.43024 235.345 -1.52346 233.274 -3.54998 231.952C9.27576 223.803 22.2841 215.813 35.5728 208.639C46.8436 213.036 57.679 218.475 67.9378 224.887C63.5748 228.153 59.1704 231.376 54.6915 234.45ZM69.4898 223.619C60.5784 217.932 51.1935 213.024 41.4392 208.949C40.2646 208.499 39.1487 207.909 38.1158 207.191C48.0827 201.846 58.3548 197.09 68.8791 192.948C76.6879 197.509 84.597 201.936 92.4643 206.405C84.6815 212.073 77.1478 217.95 69.4898 223.619ZM117.039 191.119C117.1 190.97 117.106 190.803 117.056 190.649C117.006 190.495 116.904 190.364 116.767 190.278C112.991 187.441 108.972 184.944 104.756 182.816C116.885 180.679 129.232 180.053 141.514 180.952C133.094 183.671 124.908 187.072 117.039 191.119ZM145.38 179.74C132.419 177.29 119.123 177.181 106.123 179.417L112.187 172.545C112.238 172.481 112.28 172.411 112.313 172.337C125.241 172.665 138.072 174.68 150.478 178.333C148.762 178.769 147.071 179.255 145.38 179.74Z" fill="#3A250B"/>
</svg>
