<svg width="53" height="401" viewBox="0 0 53 401" fill="none" xmlns="http://www.w3.org/2000/svg">
<path d="M167.354 10.4676C176.589 16.6808 183.761 25.0099 190.731 33.1032C194.976 38.0236 199.349 43.0685 204.173 47.7114C218.929 61.8322 235.735 73.6398 254.023 82.7337L257.128 84.2635C270.299 90.7277 285.228 98.0609 289.562 112.289C292.851 123.073 289.337 135.514 278.83 150.395C271.964 160.109 267.324 168.039 264.243 175.391C260.17 185.102 259.017 193.624 260.807 200.742C262.901 209.03 269.042 215.8 279.095 220.787C283.345 222.903 287.934 224.672 292.378 226.339C300.658 229.49 309.213 232.747 315.925 238.564C316.506 239.073 317.069 239.594 317.624 240.137C322.695 245.269 326.255 251.697 327.914 258.718C329.647 265.787 329.889 273.14 328.624 280.308C326.003 295.558 317.703 309.04 310.769 319.086C301.328 332.906 290.846 345.985 279.415 358.209C266.198 372.184 253.199 382.822 240.766 389.846C229.059 396.466 215.891 400.073 202.445 400.342C188.255 400.496 175.625 396.392 165.955 388.481C156.66 380.884 150.508 370.263 144.567 360.017C142.13 355.808 139.614 351.458 136.922 347.383C129.485 336.211 120.183 326.4 109.422 318.379C98.6863 310.322 86.704 304.076 73.9504 299.889C67.5778 297.909 61.1046 296.269 54.5581 294.976C36.7288 291.139 19.8744 287.507 7.97863 269.066C1.29787 258.716 -0.996248 245.744 1.34798 231.61C3.39821 219.158 8.99978 206.1 17.1175 194.851C25.6523 183.012 36.2784 172.664 46.5654 162.654C54.834 154.48 63.4202 146.114 70.8489 137.073C79.1591 126.908 89.6002 110.836 92.0372 92.0198C93.1467 83.4734 92.003 74.8186 90.8957 66.4414C89.9645 59.3322 88.9995 51.9651 89.343 44.5779C89.785 35.7861 92.1003 23.2794 100.641 13.6386C107.494 5.90304 117.33 1.30668 129.155 0.342776C140.251 -0.486067 151.361 1.75376 161.268 6.81709C163.366 7.91393 165.398 9.13286 167.354 10.4676ZM230.547 70.3579C220.898 63.8613 211.82 56.5546 203.411 48.5171C198.556 43.8682 194.156 38.7665 189.899 33.8276C181.121 23.6412 172.832 14.0262 160.681 7.80164C150.968 2.83532 140.077 0.633499 129.198 1.43656C117.722 2.37483 108.131 6.83827 101.471 14.3569C93.1512 23.757 90.8827 36.0054 90.4584 44.6234C90.092 51.9128 91.059 59.219 91.995 66.2874C93.1015 74.7352 94.2443 83.4606 93.1444 92.1572C90.6606 111.231 80.1114 127.479 71.715 137.756C64.2471 146.884 55.651 155.251 47.3324 163.35C37.0811 173.326 26.4908 183.638 18.0103 195.43C9.98862 206.566 4.45763 219.393 2.43666 231.76C0.153102 245.664 2.39102 258.361 8.91903 268.469C20.5731 286.528 37.2003 290.119 54.8011 293.906C61.3855 295.208 67.8967 296.857 74.3077 298.844C87.177 303.065 99.2665 309.368 110.094 317.504C120.954 325.602 130.342 335.503 137.851 346.777C140.568 350.889 143.096 355.248 145.565 359.473C151.467 369.653 157.555 380.171 166.703 387.647C176.169 395.393 188.546 399.409 202.515 399.264C215.771 398.993 228.751 395.432 240.289 388.9C252.631 381.949 265.547 371.372 278.682 357.468C290.057 345.284 300.487 332.253 309.884 318.486C316.746 308.51 324.984 295.177 327.565 280.155C328.796 273.136 328.56 265.939 326.874 259.015C325.258 252.192 321.798 245.943 316.873 240.951C316.351 240.425 315.789 239.913 315.221 239.423C308.667 233.736 300.197 230.519 292.002 227.397C287.544 225.701 282.927 223.946 278.622 221.797C268.264 216.638 261.903 209.655 259.77 201.07C257.92 193.718 259.091 184.951 263.258 175.026C266.374 167.558 271.049 159.594 277.968 149.812C288.265 135.262 291.726 123.109 288.543 112.664C286.732 106.537 282.595 101.21 276.068 96.3461C270.282 92.0612 263.358 88.6313 256.676 85.3514L253.571 83.8217C245.61 79.8426 237.919 75.345 230.547 70.3579Z" fill="black"/>
</svg>
