<svg width="85" height="401" viewBox="0 0 85 401" fill="none" xmlns="http://www.w3.org/2000/svg">
<path d="M-77.6462 10.4676C-68.4111 16.6808 -61.2386 25.0099 -54.2685 33.1032C-50.0235 38.0236 -45.6513 43.0685 -40.8275 47.7114C-26.0715 61.8322 -9.26453 73.6398 9.02312 82.7337L12.1281 84.2635C25.2992 90.7277 40.228 98.0609 44.5625 112.289C47.8509 123.073 44.3369 135.514 33.8305 150.395C26.9639 160.109 22.3245 168.039 19.2433 175.391C15.17 185.102 14.017 193.624 15.8066 200.742C17.9007 209.03 24.0419 215.8 34.0947 220.787C38.3455 222.903 42.9341 224.672 47.3782 226.339C55.6576 229.49 64.213 232.747 70.9254 238.564C71.5064 239.073 72.0688 239.594 72.624 240.137C77.6945 245.269 81.2546 251.697 82.9143 258.718C84.6468 265.787 84.8886 273.14 83.6243 280.308C81.0026 295.558 72.7033 309.04 65.7692 319.086C56.3283 332.906 45.8464 345.985 34.4147 358.209C21.1977 372.184 8.19919 382.822 -4.23387 389.846C-15.9408 396.466 -29.1092 400.073 -42.5553 400.342C-56.7455 400.496 -69.3755 396.392 -79.0448 388.481C-88.3402 380.884 -94.4917 370.263 -100.433 360.017C-102.87 355.808 -105.386 351.458 -108.078 347.383C-115.515 336.211 -124.817 326.4 -135.578 318.379C-146.314 310.322 -158.296 304.076 -171.05 299.889C-177.422 297.909 -183.895 296.269 -190.442 294.976C-208.271 291.139 -225.126 287.507 -237.021 269.066C-243.702 258.716 -245.996 245.744 -243.652 231.61C-241.602 219.158 -236 206.1 -227.882 194.851C-219.348 183.012 -208.722 172.664 -198.435 162.654C-190.166 154.48 -181.58 146.114 -174.151 137.073C-165.841 126.908 -155.4 110.836 -152.963 92.0198C-151.853 83.4734 -152.997 74.8186 -154.104 66.4414C-155.036 59.3322 -156 51.9651 -155.657 44.5779C-155.215 35.7861 -152.9 23.2794 -144.359 13.6386C-137.506 5.90304 -127.67 1.30668 -115.845 0.342776C-104.749 -0.486067 -93.6395 1.75376 -83.7319 6.81709C-81.6337 7.91393 -79.6017 9.13286 -77.6462 10.4676ZM-14.453 70.3579C-24.1021 63.8613 -33.1804 56.5546 -41.5893 48.5171C-46.4442 43.8682 -50.844 38.7665 -55.1015 33.8276C-63.8788 23.6412 -72.1677 14.0262 -84.319 7.80164C-94.032 2.83532 -104.923 0.633499 -115.802 1.43656C-127.278 2.37483 -136.869 6.83827 -143.529 14.3569C-151.849 23.757 -154.117 36.0054 -154.542 44.6234C-154.908 51.9128 -153.941 59.219 -153.005 66.2874C-151.899 74.7352 -150.756 83.4606 -151.856 92.1572C-154.339 111.231 -164.889 127.479 -173.285 137.756C-180.753 146.884 -189.349 155.251 -197.668 163.35C-207.919 173.326 -218.509 183.638 -226.99 195.43C-235.011 206.566 -240.542 219.393 -242.563 231.76C-244.847 245.664 -242.609 258.361 -236.081 268.469C-224.427 286.528 -207.8 290.119 -190.199 293.906C-183.614 295.208 -177.103 296.857 -170.692 298.844C-157.823 303.065 -145.733 309.368 -134.906 317.504C-124.046 325.602 -114.658 335.503 -107.149 346.777C-104.432 350.889 -101.904 355.248 -99.4348 359.473C-93.5328 369.653 -87.4452 380.171 -78.2968 387.647C-68.8307 395.393 -56.4542 399.409 -42.4848 399.264C-29.2292 398.993 -16.2488 395.432 -4.71078 388.9C7.63091 381.949 20.5467 371.372 33.6822 357.468C45.0568 345.284 55.4875 332.253 64.8838 318.486C71.7463 308.51 79.9845 295.177 82.5654 280.155C83.7956 273.136 83.5603 265.939 81.8742 259.015C80.2576 252.192 76.7982 245.943 71.8734 240.951C71.3506 240.425 70.7894 239.913 70.2209 239.423C63.6668 233.736 55.1973 230.519 47.0024 227.397C42.5445 225.701 37.9274 223.946 33.6218 221.797C23.2642 216.638 16.9034 209.655 14.7703 201.07C12.9198 193.718 14.0912 184.951 18.2575 175.026C21.374 167.558 26.0492 159.594 32.9675 149.812C43.265 135.262 46.7261 123.109 43.5426 112.664C41.7316 106.537 37.5946 101.21 31.0677 96.3461C25.2822 92.0612 18.3581 88.6313 11.6756 85.3514L8.57059 83.8217C0.609587 79.8426 -7.08147 75.345 -14.453 70.3579Z" fill="black"/>
</svg>
